<?xml version="1.0" standalone="no"?>
<!DOCTYPE svg PUBLIC "-//W3C//DTD SVG 20010904//EN"
 "http://www.w3.org/TR/2001/REC-SVG-20010904/DTD/svg10.dtd">
<svg version="1.0" xmlns="http://www.w3.org/2000/svg"
 width="512.000000pt" height="512.000000pt" viewBox="0 0 512.000000 512.000000"
 preserveAspectRatio="xMidYMid meet">
<metadata>
Created by potrace 1.14, written by Peter Selinger 2001-2017
</metadata>
<g transform="translate(0.000000,512.000000) scale(0.100000,-0.100000)"
fill="#000000" stroke="none">
<path d="M0 2560 l0 -2560 2560 0 2560 0 0 2560 0 2560 -2560 0 -2560 0 0
-2560z m1615 1979 c408 -41 685 -259 787 -619 21 -71 22 -101 26 -517 l3 -443
-430 0 -429 0 -4 358 c-4 312 -6 363 -22 405 -44 118 -165 129 -216 20 -11
-23 -24 -82 -30 -130 -13 -111 -13 -1965 0 -2085 11 -107 37 -170 82 -198 65
-41 131 0 165 102 15 46 18 105 21 461 l3 407 435 0 434 0 0 -433 c0 -556 -12
-652 -106 -847 -103 -213 -329 -366 -613 -414 -207 -35 -483 -29 -641 14 -362
100 -589 384 -640 800 -13 112 -13 2014 0 2169 38 431 194 725 453 855 180 90
438 124 722 95z m2236 0 c416 -42 699 -262 789 -614 30 -117 40 -270 40 -637
l0 -328 -434 0 -435 0 -3 363 -3 362 -25 49 c-14 28 -37 59 -52 69 -56 41
-116 15 -158 -69 l-25 -49 -3 -1080 c-2 -771 0 -1097 8 -1139 18 -90 71 -156
128 -156 28 0 70 36 91 78 36 72 41 133 41 527 l0 385 435 0 435 0 0 -447 c0
-247 -5 -479 -10 -518 -60 -418 -292 -656 -715 -732 -130 -23 -461 -23 -570 1
-178 39 -329 121 -450 243 -119 120 -193 264 -237 463 l-23 105 0 1080 c0 986
2 1090 18 1198 69 457 260 714 603 812 147 41 357 55 555 34z"/>
</g>
</svg>
